# xmcd CD database file
#
# Track frame offsets:
#	150
#	14510
#	33216
#	51321
#	68960
#	94055
#	117050
#	137747
#	157363
#	179454
#	205868
#
# Disc length: 3108 seconds
#
# Revision: 0
# Processed by: cddbd v1.5.2PL0 Copyright (c) Steve Scherf et al.
# Submitted via: CDex 2.21
#
DISCID=9c0c220b
DTITLE=John Pizzarelli - Sinatra and Jobim and 50
DYEAR=2017
DGENRE=Jazz
TTITLE0=Baubles,Bangles and Beads
TTITLE1=Agua De Beber
TTITLE2=Meditation - Quiet Nights of Quiet Stars
TTITLE3=Dindi
TTITLE4=I concentrate on you - Wave  
TTITLE5=Antonio's song
TTITLE6=Two Kites
TTITLE7=She's so sensitive
TTITLE8=Bonita
TTITLE9=If you ever come to me -  Change Partners
TTITLE10=Canto Casual
EXTD=YEAR: 2017
EXTT0=
EXTT1=
EXTT2=
EXTT3=
EXTT4=
EXTT5=
EXTT6=
EXTT7=
EXTT8=
EXTT9=
EXTT10=
PLAYORDER=
